<svg width="53" height="54" viewBox="0 0 53 54" fill="none" xmlns="http://www.w3.org/2000/svg">
<g style="mix-blend-mode:luminosity" clip-path="url(#clip0_115_96)">
<rect width="53" height="53" transform="translate(0 0.129395)" fill="white"/>
<path d="M51.5314 21.4033H49.4505V21.2961H26.2005V31.6294H40.8002C38.6703 37.6447 32.9469 41.9627 26.2005 41.9627C17.6406 41.9627 10.7005 35.0226 10.7005 26.4627C10.7005 17.9029 17.6406 10.9627 26.2005 10.9627C30.1517 10.9627 33.7464 12.4533 36.4835 14.8881L43.7904 7.58114C39.1766 3.28119 33.005 0.629395 26.2005 0.629395C11.9341 0.629395 0.367188 12.1963 0.367188 26.4627C0.367188 40.7292 11.9341 52.2961 26.2005 52.2961C40.467 52.2961 52.0339 40.7292 52.0339 26.4627C52.0339 24.7306 51.8556 23.0398 51.5314 21.4033Z" fill="#FED598"/>
<path d="M3.34375 14.4386L11.8313 20.6631C14.1279 14.9772 19.6898 10.9627 26.1985 10.9627C30.1497 10.9627 33.7444 12.4533 36.4815 14.8881L43.7884 7.58114C39.1746 3.28119 33.003 0.629395 26.1985 0.629395C16.2759 0.629395 7.67083 6.23135 3.34375 14.4386Z" fill="#6A440D"/>
<path d="M26.2013 52.2966C32.874 52.2966 38.9371 49.743 43.5212 45.5903L35.5258 38.8245C32.9321 40.7892 29.7081 41.9633 26.2013 41.9633C19.482 41.9633 13.7767 37.6788 11.6274 31.6997L3.20312 38.1903C7.47854 46.5565 16.1611 52.2966 26.2013 52.2966Z" fill="#008E38"/>
<path d="M51.5301 21.4007H49.4492V21.2935H26.1992V31.6268H40.7989C39.7759 34.5162 37.9172 37.0079 35.5199 38.8227L35.5238 38.8201L43.5192 45.5858C42.9534 46.0999 52.0326 39.3768 52.0326 26.4601C52.0326 24.728 51.8543 23.0372 51.5301 21.4007Z" fill="#366EFF"/>
</g>
<defs>
<clipPath id="clip0_115_96">
<rect width="53" height="53" fill="white" transform="translate(0 0.129395)"/>
</clipPath>
</defs>
</svg>
