<svg width="17" height="17" viewBox="0 0 17 17" fill="none" xmlns="http://www.w3.org/2000/svg">
<path d="M10.875 15.625H1.85C1.58767 15.625 1.375 15.4124 1.375 15.15V3.43333C1.375 3.171 1.58767 2.95833 1.85 2.95833H6.125V1.85C6.125 1.58767 6.33767 1.375 6.6 1.375H10.4C10.6624 1.375 10.875 1.58767 10.875 1.85V6.125M10.875 15.625H15.15C15.4124 15.625 15.625 15.4124 15.625 15.15V6.6C15.625 6.33767 15.4124 6.125 15.15 6.125H10.875M10.875 15.625V12.4583M10.875 6.125V9.29167M10.875 12.4583V9.29167M10.875 12.4583H12.4583M10.875 9.29167H12.4583" stroke="#013D4E" stroke-width="1.5" stroke-linecap="round" stroke-linejoin="round"/>
</svg>
